<?xml version="1.0" encoding="utf-8"?>
<!-- Generator: Adobe Illustrator 16.0.0, SVG Export Plug-In . SVG Version: 6.00 Build 0)  -->
<!DOCTYPE svg PUBLIC "-//W3C//DTD SVG 1.1//EN" "http://www.w3.org/Graphics/SVG/1.1/DTD/svg11.dtd">
<svg version="1.1" id="Layer_1" xmlns="http://www.w3.org/2000/svg" xmlns:xlink="http://www.w3.org/1999/xlink" x="0px" y="0px"
	 width="1000px" height="1000px" viewBox="0 0 1000 1000" enable-background="new 0 0 1000 1000" xml:space="preserve">
<path fill-rule="evenodd" clip-rule="evenodd" fill="#020101" d="M774.87,883.348H228.06c-90.605,0-164.058-73.457-164.058-164.058
	V281.746c0-19.016,3.735-36.904,9.692-53.888h206.939v-110.2H774.87c90.601,0,164.058,73.457,164.058,164.087V719.29
	C938.928,809.891,865.471,883.348,774.87,883.348L774.87,883.348z M280.078,336.75c-34.127-0.585-56.507-0.585-106.655,0
	l3.366,385.341c0,45.313,23.125,58.531,51.644,58.531c28.516,0,51.645-13.218,51.645-58.531V336.75L280.078,336.75z
	 M829.103,224.867c-84.243-1.658-352.528,2.991-436.237,0V667.83c0,60.43-8.944,109.457-95.464,109.457h422.275
	c60.402,0,109.426-49.027,109.426-109.457V224.867L829.103,224.867z M448.431,555.978h327.744v105.151H448.431V555.978
	L448.431,555.978z M448.431,337.495h327.744v105.132H448.431V337.495L448.431,337.495z"/>
</svg>
