<?xml version="1.0" encoding="utf-8"?>
<!-- Generator: Adobe Illustrator 16.0.0, SVG Export Plug-In . SVG Version: 6.00 Build 0)  -->
<!DOCTYPE svg PUBLIC "-//W3C//DTD SVG 1.1//EN" "http://www.w3.org/Graphics/SVG/1.1/DTD/svg11.dtd">
<svg version="1.1" id="Layer_1" xmlns="http://www.w3.org/2000/svg" xmlns:xlink="http://www.w3.org/1999/xlink" x="0px" y="0px"
	 width="1000px" height="1000px" viewBox="0 0 1000 1000" enable-background="new 0 0 1000 1000" xml:space="preserve">
<path fill-rule="evenodd" clip-rule="evenodd" fill="#020102" d="M883.696,942.939H111.103c-32.817,0-59.364-26.516-59.364-59.329
	V110.984c0-32.844,26.547-59.364,59.364-59.364h772.593c32.817,0,59.362,26.52,59.362,59.364V883.61
	C943.059,916.424,916.514,942.939,883.696,942.939L883.696,942.939z M765.203,467.31c0-32.818-26.545-59.364-59.365-59.364H586.531
	V290.874c0-32.846-26.549-59.366-59.361-59.366h-59.537c-32.845,0-59.364,26.52-59.364,59.366v117.072h-118.9
	c-32.817,0-59.364,26.546-59.364,59.364v59.741c0,32.842,26.547,59.361,59.364,59.361h118.9v120.322
	c0,32.813,26.519,59.565,59.364,59.565h59.537c32.813,0,59.361-26.752,59.361-59.565V586.412h119.307
	c32.82,0,59.365-26.52,59.365-59.361V467.31L765.203,467.31z"/>
</svg>
