<?xml version="1.0" encoding="utf-8"?>
<!-- Generator: Adobe Illustrator 16.0.0, SVG Export Plug-In . SVG Version: 6.00 Build 0)  -->
<!DOCTYPE svg PUBLIC "-//W3C//DTD SVG 1.1//EN" "http://www.w3.org/Graphics/SVG/1.1/DTD/svg11.dtd">
<svg version="1.1" id="Layer_1" xmlns="http://www.w3.org/2000/svg" xmlns:xlink="http://www.w3.org/1999/xlink" x="0px" y="0px"
	 width="1000px" height="1000px" viewBox="0 0 1000 1000" enable-background="new 0 0 1000 1000" xml:space="preserve">
<path fill-rule="evenodd" clip-rule="evenodd" fill="#020001" d="M870.647,932.683H622.512c-34.234,0-61.94-27.916-61.94-62.151
	V622.584c0-34.242,27.706-61.912,61.94-61.912h248.136c34.27,0,61.939,27.67,61.939,61.912v247.947
	C932.587,904.767,904.917,932.683,870.647,932.683L870.647,932.683z M809.159,684.522h-123.88v124.063h123.88V684.522
	L809.159,684.522z M870.647,436.575H622.512c-34.234,0-61.94-27.67-61.94-61.912V126.505c0-34.241,27.706-61.941,61.94-61.941
	h248.136c34.27,0,61.939,27.7,61.939,61.941v248.158C932.587,408.905,904.917,436.575,870.647,436.575L870.647,436.575z
	 M375.203,932.683H127.255c-34.24,0-62.117-27.916-62.117-62.151V622.584c0-34.242,27.877-61.912,62.117-61.912h247.948
	c34.242,0,61.94,27.67,61.94,61.912v247.947C437.144,904.767,409.445,932.683,375.203,932.683L375.203,932.683z M375.203,436.575
	H127.255c-34.24,0-62.117-27.67-62.117-61.912V126.505c0-34.241,27.877-61.941,62.117-61.941h247.948
	c34.242,0,61.94,27.7,61.94,61.941v248.158C437.144,408.905,409.445,436.575,375.203,436.575L375.203,436.575z"/>
</svg>
