<?xml version="1.0" encoding="utf-8"?>
<!-- Generator: Adobe Illustrator 16.0.0, SVG Export Plug-In . SVG Version: 6.00 Build 0)  -->
<!DOCTYPE svg PUBLIC "-//W3C//DTD SVG 1.1//EN" "http://www.w3.org/Graphics/SVG/1.1/DTD/svg11.dtd">
<svg version="1.1" id="Layer_1" xmlns="http://www.w3.org/2000/svg" xmlns:xlink="http://www.w3.org/1999/xlink" x="0px" y="0px"
	 width="1000px" height="1000px" viewBox="0 0 1000 1000" enable-background="new 0 0 1000 1000" xml:space="preserve">
<path fill="#070707" d="M944.429,736.284c-16.334,16.34-42.776,16.34-59.262,0L470.714,321.692
	c-16.334-16.335-16.334-42.778,0-59.118c16.374-16.341,42.922-16.341,59.257,0l414.458,414.453
	C960.798,693.402,960.798,719.95,944.429,736.284L944.429,736.284z M529.971,321.692L115.484,736.284
	c-16.34,16.34-42.883,16.34-59.223,0c-16.34-16.334-16.34-42.882,0-59.257l414.453-414.453c16.374-16.341,42.922-16.341,59.257,0
	C546.311,278.914,546.311,305.357,529.971,321.692L529.971,321.692z"/>
</svg>
