<?xml version="1.0" encoding="utf-8"?>
<!-- Generator: Adobe Illustrator 16.0.0, SVG Export Plug-In . SVG Version: 6.00 Build 0)  -->
<!DOCTYPE svg PUBLIC "-//W3C//DTD SVG 1.1//EN" "http://www.w3.org/Graphics/SVG/1.1/DTD/svg11.dtd">
<svg version="1.1" id="Layer_1" xmlns="http://www.w3.org/2000/svg" xmlns:xlink="http://www.w3.org/1999/xlink" x="0px" y="0px"
	 width="1000px" height="1000px" viewBox="0 0 1000 1000" enable-background="new 0 0 1000 1000" xml:space="preserve">
<g>
	<path fill-rule="evenodd" clip-rule="evenodd" d="M876.044,202H375.889c7.719,18,12.713,44.558,12.713,69.098
		c0,115.364-93.043,208.613-208.426,208.613c-24.556,0-32.177-5.251-69.177-13.102v326.15c0,38.453,30.262,68.24,68.713,68.24
		h696.331C914.497,861,950,831.213,950,792.76V270.538C950,232.087,914.497,202,876.044,202z M875.948,793.686L179.713,790
		c-0.129,0-0.129,0-0.129,0s0.129-147.878,0.129-240.027C333.288,549.973,458.266,407,458.266,275c114.887,0,417.778,0,417.778,0
		L875.948,793.686z"/>
	<path fill-rule="evenodd" clip-rule="evenodd" d="M318.938,270.538c0-77.008-62.319-139.328-139.225-139.328
		c-76.902,0-139.223,62.32-139.223,139.328c0,76.904,62.321,139.225,139.223,139.225
		C256.619,409.763,318.938,347.442,318.938,270.538z M110.154,270.538c0-38.451,31.212-69.664,69.559-69.664
		c38.349,0,69.561,31.212,69.561,69.664c0,38.349-31.212,69.562-69.561,69.562C141.367,340.1,110.154,308.887,110.154,270.538z"/>
</g>
</svg>
