<?xml version="1.0" encoding="utf-8"?>
<!-- Generator: Adobe Illustrator 16.0.0, SVG Export Plug-In . SVG Version: 6.00 Build 0)  -->
<!DOCTYPE svg PUBLIC "-//W3C//DTD SVG 1.1//EN" "http://www.w3.org/Graphics/SVG/1.1/DTD/svg11.dtd">
<svg version="1.1" id="Layer_1" xmlns="http://www.w3.org/2000/svg" xmlns:xlink="http://www.w3.org/1999/xlink" x="0px" y="0px"
	 width="1000px" height="1000px" viewBox="0 0 1000 1000" enable-background="new 0 0 1000 1000" xml:space="preserve">
<g>
	<path fill="#020202" d="M944.693,421.168c0-14.153-2.794-28.438-8.354-41.821c-13.38-32.298-41.422-56.268-75.608-64.435
		c0,0-20.284-4.824-47.506-11.291l23.748,23.743c10.217,10.215,15.963,23.943,15.963,38.443c0,14.498-5.746,28.226-15.963,38.442
		l-13.763,13.754l12.459,2.954L703.422,634.214l20.432,210.997l-219.19-108.119l-1.405,0.689l-5.087,5.083
		c-10.41,10.593-24.06,15.759-37.765,15.931l-176.21,86.416l21.176-213.604l-0.334-0.514l-76.391-76.374
		c-10.588-10.588-15.962-24.527-15.962-38.468c0-7.083,1.355-14.154,4.086-20.791l-48.489-74.504l208.602-49.964l127.222-198.571
		l0.559,2.234l98.386,149.979c42.771-42.767,77.147-77.138,77.147-77.138c0.547-0.549,1.139-1.024,1.704-1.544
		c-32.206-49.123-75.018-114.344-81.011-123.496c-15.616-30.061-44.775-51.983-79.121-57.57c-5.959-0.931-11.705-1.49-17.664-1.49
		c-36.768,0-71.512,18.597-91.757,50.149c0,0-72.071,112.562-103.463,161.592c-54.033,13.011-166.037,39.773-166.037,39.773
		c-34.372,8.354-62.599,32.855-75.794,65.738c-5.214,13.009-7.794,26.738-7.794,40.307c0,20.804,5.932,41.448,17.637,59.459
		c0,0,86.384,132.407,116.287,178.486c-5.028,51.453-17.479,175.508-17.479,175.508c-0.373,3.563-0.559,7.261-0.559,10.801
		c0,35.462,17.479,69.09,46.823,89.521c18.571,12.823,40.306,19.317,62.228,19.317c16.334,0,32.695-3.515,47.913-10.963
		c0,0,113.679-55.708,172.368-84.495c58.689,28.945,171.063,84.335,171.063,84.335c15.244,7.608,31.766,11.306,48.313,11.306
		c21.735,0,43.443-6.49,61.854-19.285c29.717-20.461,47.168-54.274,47.168-89.924c0-3.537-0.187-6.891-0.56-10.402
		c0,0-12.076-124.079-16.892-174.23c28.228-45.519,112.934-182.022,112.934-182.022
		C939.133,460.888,944.693,441.202,944.693,421.168z"/>
	<polygon fill="#020202" points="346.955,436.386 267.088,516.252 380.023,629.185 382.345,626.857 459.701,704.396 
		798.504,365.807 718.639,285.914 457.469,547.084 	"/>
</g>
</svg>
