<?xml version="1.0" encoding="utf-8"?>
<!-- Generator: Adobe Illustrator 16.0.0, SVG Export Plug-In . SVG Version: 6.00 Build 0)  -->
<!DOCTYPE svg PUBLIC "-//W3C//DTD SVG 1.1//EN" "http://www.w3.org/Graphics/SVG/1.1/DTD/svg11.dtd">
<svg version="1.1" id="Layer_1" xmlns="http://www.w3.org/2000/svg" xmlns:xlink="http://www.w3.org/1999/xlink" x="0px" y="0px"
	 width="1000px" height="1000px" viewBox="0 0 1000 1000" enable-background="new 0 0 1000 1000" xml:space="preserve">
<path fill-rule="evenodd" clip-rule="evenodd" fill="#020101" d="M910.848,539.279h-71.424c-19.001,0-34.448-15.369-34.448-34.379
	c0-19.009,15.447-34.456,34.448-34.456h71.424c18.999,0,34.37,15.447,34.37,34.456C945.218,523.91,929.847,539.279,910.848,539.279
	L910.848,539.279z M775.543,323.142c-13.39,13.461-35.244,13.461-48.645,0c-13.461-13.46-13.461-35.239,0-48.7l50.493-50.498
	c13.404-13.461,35.244-13.461,48.644,0c13.46,13.46,13.46,35.25,0,48.711L775.543,323.142L775.543,323.142z M723.531,560.406
	c32.8,34.776,53.259,81.5,53.259,133.117c0,105.793-84.34,191.586-189.528,194.291v1.787H286.041v-2.704
	C154.966,874.95,52.348,764.926,52.348,630.756c0-142.097,115.153-257.257,257.247-257.257c30.172,0,58.949,5.736,85.871,15.311
	c32.989-51.611,90.691-85.926,156.481-85.926c102.693,0,185.913,83.29,185.913,185.908
	C737.859,514.2,732.777,538.361,723.531,560.406L723.531,560.406z M553.137,371.92c-38.605,0-74.241,18.999-95.756,47.641
	c35.823,28.056,48.755,39.475,76.473,85.604c51.95-12.942,94.188-3.896,129.158,11.75c5.223-5.222,8.189-13.735,8.189-26.932
	C671.201,424.778,618.344,371.92,553.137,371.92L553.137,371.92z M584.54,567.27c-33.992,0-64.677,13.595-87.439,35.373
	c-13.594-91.476-92.258-161.698-187.506-161.698c-104.793,0-189.811,85.006-189.811,189.811
	c0,104.865,85.018,189.812,189.811,189.812c14.067,0,27.584-1.788,40.8-4.688h201.284c10.493,2.844,21.438,4.688,32.861,4.688
	c69.965,0,126.721-56.689,126.721-126.649C711.261,623.959,654.505,567.27,584.54,567.27L584.54,567.27z M547.598,247.777
	c-19.021,0-34.465-15.38-34.465-34.39v-71.405c0-19.011,15.443-34.457,34.465-34.457c19,0,34.371,15.446,34.371,34.457v71.405
	C581.969,232.396,566.598,247.777,547.598,247.777L547.598,247.777z M316.987,323.142l-50.479-50.486
	c-13.461-13.461-13.461-35.251,0-48.711c13.461-13.461,35.241-13.461,48.702,0l50.495,50.498c13.386,13.461,13.386,35.239,0,48.7
	C352.227,336.603,330.448,336.603,316.987,323.142L316.987,323.142z"/>
</svg>
