<?xml version="1.0" encoding="utf-8"?>
<!-- Generator: Adobe Illustrator 16.0.0, SVG Export Plug-In . SVG Version: 6.00 Build 0)  -->
<!DOCTYPE svg PUBLIC "-//W3C//DTD SVG 1.1//EN" "http://www.w3.org/Graphics/SVG/1.1/DTD/svg11.dtd">
<svg version="1.1" id="Layer_1" xmlns="http://www.w3.org/2000/svg" xmlns:xlink="http://www.w3.org/1999/xlink" x="0px" y="0px"
	 width="1000px" height="1000px" viewBox="0 0 1000 1000" enable-background="new 0 0 1000 1000" xml:space="preserve">
<path fill-rule="evenodd" clip-rule="evenodd" fill="#020001" d="M900.222,294.419l-198.878,137.3
	c-75.7,28.644-38.878,67.521-38.878,67.521l38.878,32.742c26.808,30.695-8.182,75.914-8.182,75.914
	c-20.458,36.822-59.336,10.233-59.336,10.233L385.842,370.146c-6.126-24.543,30.882-55.237,30.882-55.237
	c18.412-24.565,55.262,0,55.262,0l42.951,47.054c36.85,32.747,71.808-42.977,71.808-42.977l118.707-178.227
	C773.15,23.949,855.008,91.653,855.008,91.653l77.961,73.671C975.922,245.313,900.222,294.419,900.222,294.419L900.222,294.419z
	 M803.099,167.724c-24.724,0-44.626,20.118-44.626,44.655c0,24.754,19.902,44.658,44.626,44.658
	c24.569,0,44.662-19.904,44.662-44.658C847.761,187.842,827.668,167.724,803.099,167.724L803.099,167.724z M609.262,699.979
	L492.451,829.074c-24.569,22.513-45.031,98.4-45.031,98.4c-16.359,20.462-22.518,12.284-22.518,12.284l-61.573-59.526l34.797-75.694
	l-67.544,45.025l-38.874-28.671l32.748-61.388l-65.493,24.565l-28.832-28.666l26.807-57.477l-59.527,28.645l-49.134-57.289
	l38.901-57.311l-69.596,26.619l-34.958-30.694c-38.901-24.57-24.565-40.93-24.565-40.93c-4.102-12.467,69.751-20.676,69.751-20.676
	c26.593-8.151,178.229-143.24,178.229-143.24c26.593-20.626,57.29,6.155,57.29,6.155l252.087,247.797
	C627.669,675.414,609.262,699.979,609.262,699.979L609.262,699.979z"/>
</svg>
