<?xml version="1.0" encoding="utf-8"?>
<!-- Generator: Adobe Illustrator 16.0.0, SVG Export Plug-In . SVG Version: 6.00 Build 0)  -->
<!DOCTYPE svg PUBLIC "-//W3C//DTD SVG 1.1//EN" "http://www.w3.org/Graphics/SVG/1.1/DTD/svg11.dtd">
<svg version="1.1" id="Layer_1" xmlns="http://www.w3.org/2000/svg" xmlns:xlink="http://www.w3.org/1999/xlink" x="0px" y="0px"
	 width="1000px" height="1000px" viewBox="0 0 1000 1000" enable-background="new 0 0 1000 1000" xml:space="preserve">
<path fill-rule="evenodd" clip-rule="evenodd" fill="#020001" d="M812.087,938.734H179.276
	c-69.902,0-126.638-56.712-126.638-126.426V432.587c0-69.9,56.735-126.638,126.638-126.638h63.838V178.2h125.838v127.75h62.977
	V178.2h126.018v127.75h66.438V178.2h126.021v127.75h61.681c69.896,0,126.45,56.737,126.45,126.638v379.722
	C938.537,882.022,881.983,938.734,812.087,938.734L812.087,938.734z M816.845,493.432c0-34.95-28.241-63.193-63.224-63.193H239.902
	c-34.915,0-63.226,28.243-63.226,63.193v66.255h640.169V493.432L816.845,493.432z M816.845,622.67H176.676v125.58
	c0,34.952,28.312,63.195,63.226,63.195h513.719c34.982,0,63.224-28.243,63.224-63.195V622.67L816.845,622.67z M620.923,52.431
	h129.483v59.33H620.923V52.431L620.923,52.431z M428.471,52.431h129.477v59.33H428.471V52.431L428.471,52.431z M239.47,52.431
	h129.482v59.33H239.47V52.431L239.47,52.431z"/>
</svg>
