<?xml version="1.0" encoding="utf-8"?>
<!-- Generator: Adobe Illustrator 16.0.0, SVG Export Plug-In . SVG Version: 6.00 Build 0)  -->
<!DOCTYPE svg PUBLIC "-//W3C//DTD SVG 1.1//EN" "http://www.w3.org/Graphics/SVG/1.1/DTD/svg11.dtd">
<svg version="1.1" id="Layer_1" xmlns="http://www.w3.org/2000/svg" xmlns:xlink="http://www.w3.org/1999/xlink" x="0px" y="0px"
	 width="1000px" height="1000px" viewBox="0 0 1000 1000" enable-background="new 0 0 1000 1000" xml:space="preserve">
<path fill-rule="evenodd" clip-rule="evenodd" fill="#020102" d="M917.574,531.6h-81.2v280.939
	c0,62.346-47.735,112.979-106.607,112.979H554.279V692.672c0-31.199-51.762-52.918-82.934-52.918
	c-31.202,0-86.41,21.719-86.41,52.918v232.846H266.393c-58.9,0-106.611-50.633-106.611-112.979V531.6H81.257
	c-46.165-48.894-46.165-121.245,0-170.142l334.467-248.223c46.166-48.866,121.024-48.866,167.22,0l334.63,248.223
	C963.77,410.355,963.77,482.706,917.574,531.6L917.574,531.6z"/>
</svg>
