<?xml version="1.0" encoding="utf-8"?>
<!-- Generator: Adobe Illustrator 16.0.0, SVG Export Plug-In . SVG Version: 6.00 Build 0)  -->
<!DOCTYPE svg PUBLIC "-//W3C//DTD SVG 1.1//EN" "http://www.w3.org/Graphics/SVG/1.1/DTD/svg11.dtd">
<svg version="1.1" id="Layer_1" xmlns="http://www.w3.org/2000/svg" xmlns:xlink="http://www.w3.org/1999/xlink" x="0px" y="0px"
	 width="1000px" height="1000px" viewBox="0 0 1000 1000" enable-background="new 0 0 1000 1000" xml:space="preserve">
<path fill="#020001" d="M913.091,239.062H88.509c-23.945,0-43.359-19.366-43.359-43.336v-86.866
	c0-23.969,19.414-43.337,43.359-43.337h824.582c23.948,0,43.484,19.368,43.484,43.337v86.866
	C956.575,219.695,937.039,239.062,913.091,239.062L913.091,239.062z M913.091,239.062H88.509c-23.945,0-43.359-19.366-43.359-43.336
	v-86.866c0-23.969,19.414-43.337,43.359-43.337h824.582c23.948,0,43.484,19.368,43.484,43.337v86.866
	C956.575,219.695,937.039,239.062,913.091,239.062L913.091,239.062z M913.091,239.062H88.509c-23.945,0-43.359-19.366-43.359-43.336
	v-86.866c0-23.969,19.414-43.337,43.359-43.337h824.582c23.948,0,43.484,19.368,43.484,43.337v86.866
	C956.575,219.695,937.039,239.062,913.091,239.062L913.091,239.062z M913.091,542.831H88.509c-23.945,0-43.359-19.393-43.359-43.361
	v-86.867c0-23.966,19.414-43.336,43.359-43.336h824.582c23.948,0,43.484,19.37,43.484,43.336v86.867
	C956.575,523.438,937.039,542.831,913.091,542.831L913.091,542.831z M440.213,846.742H88.509c-23.945,0-43.359-19.541-43.359-43.51
	v-86.69c0-23.991,19.414-43.532,43.359-43.532h290.16c23.948,0,59.466,11.425,59.466,35.393l45.562,94.83
	C483.696,827.201,464.158,846.742,440.213,846.742L440.213,846.742z M944.922,738.134L776.359,922.206
	c-15.511,17-40.687,17-56.206,0L551.596,738.134c-15.516-17.02-15.516-44.375,0-61.412h393.326
	C960.432,693.759,960.432,721.114,944.922,738.134L944.922,738.134z"/>
</svg>
