<?xml version="1.0" encoding="utf-8"?>
<!-- Generator: Adobe Illustrator 16.0.0, SVG Export Plug-In . SVG Version: 6.00 Build 0)  -->
<!DOCTYPE svg PUBLIC "-//W3C//DTD SVG 1.1//EN" "http://www.w3.org/Graphics/SVG/1.1/DTD/svg11.dtd">
<svg version="1.1" id="Layer_1" xmlns="http://www.w3.org/2000/svg" xmlns:xlink="http://www.w3.org/1999/xlink" x="0px" y="0px"
	 width="1000px" height="1000px" viewBox="0 0 1000 1000" enable-background="new 0 0 1000 1000" xml:space="preserve">
<path fill-rule="evenodd" clip-rule="evenodd" fill="#050003" d="M629.312,515.818L956.567,169.4
	c0.169,2.161,1.182,4.097,1.182,6.257v645.261L629.312,515.818L629.312,515.818z M454.631,521.313L73.974,128.257
	c3.703-0.954,7.237-2.328,11.158-2.328H910.57L541.012,521.313C499.279,570.459,454.631,521.313,454.631,521.313L454.631,521.313z
	 M39.302,822.65c0-0.385-0.167-0.553-0.167-0.971V187.017l327.993,328.407L39.302,822.65L39.302,822.65z M431.963,580.444
	c59.124,54.241,131.767,4.876,131.767,4.876l22.894-24.26l325.463,310.344h-0.166H85.132c-1.341,0-2.521-0.562-3.703-0.755
	L409.413,557.91L431.963,580.444L431.963,580.444z"/>
</svg>
