<?xml version="1.0" encoding="utf-8"?>
<!-- Generator: Adobe Illustrator 16.0.0, SVG Export Plug-In . SVG Version: 6.00 Build 0)  -->
<!DOCTYPE svg PUBLIC "-//W3C//DTD SVG 1.1//EN" "http://www.w3.org/Graphics/SVG/1.1/DTD/svg11.dtd">
<svg version="1.1" id="Layer_1" xmlns="http://www.w3.org/2000/svg" xmlns:xlink="http://www.w3.org/1999/xlink" x="0px" y="0px"
	 width="1000px" height="1000px" viewBox="0 0 1000 1000" enable-background="new 0 0 1000 1000" xml:space="preserve">
<path fill="#050505" d="M753.719,734.822C605.667,945.896,502.493,937.185,502.493,937.185
	C375.459,936.239,260.546,749.2,260.546,749.2c-111.119-82.924-56.972-181.354-56.972-181.354
	c0-105.448,169.253-75.349,169.253-75.349l314.809-1.137c74.022,0,104.313,61.518,104.313,61.518
	C856.894,613.104,753.719,734.822,753.719,734.822L753.719,734.822z M498.535,445.913c-109.628,0-198.43-88.773-198.43-198.403
	c0-109.405,88.802-198.186,198.43-198.186c109.604,0,198.376,88.781,198.376,198.186C696.911,357.14,608.14,445.913,498.535,445.913
	L498.535,445.913z"/>
</svg>
