<?xml version="1.0" encoding="utf-8"?>
<!-- Generator: Adobe Illustrator 16.0.0, SVG Export Plug-In . SVG Version: 6.00 Build 0)  -->
<!DOCTYPE svg PUBLIC "-//W3C//DTD SVG 1.1//EN" "http://www.w3.org/Graphics/SVG/1.1/DTD/svg11.dtd">
<svg version="1.1" id="Layer_1" xmlns="http://www.w3.org/2000/svg" xmlns:xlink="http://www.w3.org/1999/xlink" x="0px" y="0px"
	 width="1000px" height="1000px" viewBox="0 0 1000 1000" enable-background="new 0 0 1000 1000" xml:space="preserve">
<path d="M934.91,493.813c0-85.071-40.87-149.903-107.364-179.126c0.558-6.736,0.936-13.498,0.936-20.235
	c0-84.664-45.535-160.364-124.972-207.407c-6.168-3.758-12.745-6.735-19.668-9.179c-59.764-21.172-110.564-31.477-155.699-31.477
	c-74.763,0-133.772,29.438-169.194,79.808c-18.168-6.549-36.9-10.117-56.381-10.117c-145.768,0-251.258,189.428-251.258,317.191
	c0,61.264,25.307,112.065,66.524,142.011c-8.613,24.18-11.244,47.043-11.244,65.777c0,180.06,140.698,296.604,358.222,296.604
	c0,0,9.18-0.376,17.229-0.588c1.69,0.212,3.381,0.212,3.381,0.212c0.752,0,5.26,0.164,6.362,0.164
	c98.561,0,174.802-50.932,205.717-131.896c5.257,0.376,10.491,0.563,15.753,0.563c54.901,0,186.233-26.222,218.65-268.46
	l-0.188,0.729C933.783,523.596,934.91,508.625,934.91,493.813z M822.847,523.035C794,738.68,681.585,725.749,612.271,630.939
	c-13.448-18.435-25.171-36.899-35.261-54.264c-7.917,6.147-17.177,10.013-27.238,12.21c28.256,48.251,55.013,104.55,52.568,141.747
	c-7.294,107.529-119.174,96.471-119.174,96.471S216.56,846.772,216.56,641.06c0-79.706,103.664-116.578,182.855-133.187
	c-4.777-7.512-8.104-15.886-10.09-24.77c-6.923-1.932-13.257-4.507-19.081-8.346c-39.393,20.556-84.206,24.502-163.236,19.589
	c-114.855-6.923,10.68-303.879,115.041-264.728c44.896,16.772,77.018,69.798,92.314,122.476
	c16.047,1.797,30.108,8.989,40.709,19.804c-35.8-104.36-65.317-281.231,192.216-190.396
	c101.361,60.113,81.717,170.833,19.674,210.925c-20.289,13.229-42.532,22.676-64.407,29.68c0.353,3.195,1.503,6.173,1.291,9.5
	c-0.323,5.314-2.255,9.985-3.918,14.761C692.861,405.149,844.502,360.682,822.847,523.035z"/>
</svg>
