<?xml version="1.0" encoding="utf-8"?>
<!-- Generator: Adobe Illustrator 16.0.0, SVG Export Plug-In . SVG Version: 6.00 Build 0)  -->
<!DOCTYPE svg PUBLIC "-//W3C//DTD SVG 1.1//EN" "http://www.w3.org/Graphics/SVG/1.1/DTD/svg11.dtd">
<svg version="1.1" id="Layer_1" xmlns="http://www.w3.org/2000/svg" xmlns:xlink="http://www.w3.org/1999/xlink" x="0px" y="0px"
	 width="1000px" height="1000px" viewBox="0 0 1000 1000" enable-background="new 0 0 1000 1000" xml:space="preserve">
<path fill-rule="evenodd" clip-rule="evenodd" fill="#020001" d="M924.286,820.063c42.979,42.972,54.74,100.651,26.386,128.991
	c-28.34,28.354-86.02,16.351-128.71-26.386l-99.524-95.785c-3.149-3.179-5.115-7.101-7.978-10.529
	c-169.102,121.468-405.406,107.297-557.63-44.939c-169.314-169.307-169.314-443.71,0-612.774
	c169.31-169.344,443.749-169.344,612.781,0c152.23,151.953,166.438,388.211,45.001,557.556c3.429,2.944,7.351,4.866,10.498,8.046
	L924.286,820.063L924.286,820.063z M661.609,257.819c-114.087-114.121-297.6-115.802-409.73-3.92
	c-112.125,112.16-110.451,295.647,3.918,409.771c114.086,114.329,297.6,116.079,409.734,3.92
	C777.726,555.428,775.978,371.905,661.609,257.819L661.609,257.819z"/>
</svg>
