<?xml version="1.0" encoding="utf-8"?>
<!-- Generator: Adobe Illustrator 16.0.0, SVG Export Plug-In . SVG Version: 6.00 Build 0)  -->
<!DOCTYPE svg PUBLIC "-//W3C//DTD SVG 1.1//EN" "http://www.w3.org/Graphics/SVG/1.1/DTD/svg11.dtd">
<svg version="1.1" id="Layer_1" xmlns="http://www.w3.org/2000/svg" xmlns:xlink="http://www.w3.org/1999/xlink" x="0px" y="0px"
	 width="1000px" height="1000px" viewBox="0 0 1000 1000" enable-background="new 0 0 1000 1000" xml:space="preserve">
<path fill-rule="evenodd" clip-rule="evenodd" fill="#020101" d="M495.458,823.081c-33.501,0-65.426-5.506-96.359-13.183
	l38.414-80.017c20.886,4.351,42.365,6.72,64.438,6.72c174.796,0,316.484-141.719,316.484-316.483
	c0-174.797-141.688-316.484-316.484-316.484c-174.994,0-316.682,141.687-316.682,316.484c0,60.09,17.557,115.632,46.514,163.336
	l-57.718,74.513c-47.306-65.255-75.897-145.051-75.897-231.948c0-219.336,177.758-397.264,397.291-397.264
	c219.334,0,397.063,177.928,397.063,397.264C892.521,645.353,714.793,823.081,495.458,823.081L495.458,823.081z M369.126,558.25
	c-34.461-33.109-56.141-79.622-56.141-131.245c0-100.509,81.375-181.881,181.881-181.881c100.313,0,181.881,81.372,181.881,181.881
	c0,100.506-81.567,181.906-181.881,181.906c-24.639,0-48.093-4.938-69.574-13.829c-13.207,13.015-155.263,159.812-137.934,357.892
	c-36.268,9.06-82.36,4.116-142.674,0C144.684,841.032,266.867,623.278,369.126,558.25L369.126,558.25z"/>
</svg>
