<?xml version="1.0" encoding="utf-8"?>
<!-- Generator: Adobe Illustrator 16.0.0, SVG Export Plug-In . SVG Version: 6.00 Build 0)  -->
<!DOCTYPE svg PUBLIC "-//W3C//DTD SVG 1.1//EN" "http://www.w3.org/Graphics/SVG/1.1/DTD/svg11.dtd">
<svg version="1.1" id="Layer_1" xmlns="http://www.w3.org/2000/svg" xmlns:xlink="http://www.w3.org/1999/xlink" x="0px" y="0px"
	 width="1000px" height="1000px" viewBox="0 0 1000 1000" enable-background="new 0 0 1000 1000" xml:space="preserve">
<path fill="#020001" d="M149.053,922.199L58.722,441.563l220.842,2.328l3.41,482.277L149.053,922.199L149.053,922.199z
	 M875.263,584.525c0,0,42.92,22.878,39.101,55.519c-3.771,32.641-63.265,58.985-63.265,58.985s43.641,26.287,37.854,56.969
	c-5.738,30.837-54.445,54.428-54.445,54.428s24.182,35.903,16.066,57.543c-11.565,30.623-27.788,57.329-102.625,57.329
	c-74.781,0-275.271,1.033-275.271,1.033l-137.381-54.445c0,0,0.148-279.458,1.961-401.503
	c5.778-38.419,145.339-142.954,154.888-217.792c9.714-74.839-12.811-118.988-5.222-143.89c7.755-25.05,27.379-43.952,56.248-42.141
	c28.821,1.96,85.429,76.797,102.725,182.261c17.149,105.626-20.501,199.776-20.501,199.776s206.228-3.099,242.844,0.72
	c36.411,3.919,65.288,57.33,67.238,82.215C937.29,556.583,875.263,584.525,875.263,584.525L875.263,584.525z"/>
</svg>
