<?xml version="1.0" encoding="utf-8"?>
<!-- Generator: Adobe Illustrator 16.0.0, SVG Export Plug-In . SVG Version: 6.00 Build 0)  -->
<!DOCTYPE svg PUBLIC "-//W3C//DTD SVG 1.1//EN" "http://www.w3.org/Graphics/SVG/1.1/DTD/svg11.dtd">
<svg version="1.1" id="Layer_1" xmlns="http://www.w3.org/2000/svg" xmlns:xlink="http://www.w3.org/1999/xlink" x="0px" y="0px"
	 width="1000px" height="1000px" viewBox="0 0 1000 1000" enable-background="new 0 0 1000 1000" xml:space="preserve">
<path fill="#020202" d="M496.74,42.678c-253.288,0-458.383,205.373-458.383,458.417c0,253.042,205.095,458.105,458.383,458.105
	c253.04,0,458.173-205.063,458.173-458.105C954.913,248.051,749.78,42.678,496.74,42.678z M236.042,749.572l-68.777-355.35
	l167.998,1.887l2.607,356.587L236.042,749.572z M788.114,492.684c0,0,32.604,17.504,29.72,42.421
	c-2.883,24.677-48.144,44.823-48.144,44.823s33.288,19.872,29.001,43.347c-4.569,23.235-41.464,41.218-41.464,41.218
	s18.187,27.318,12.222,43.862c-8.891,23.234-21.11,43.586-78.117,43.586c-56.795,0-209.217,0.756-209.217,0.756l-104.469-41.252
	c0,0,0-212.511,1.441-305.246c4.565-29.241,85.32-108.794,92.494-165.595c7.446-57.005-9.818-90.571-4.05-109.516
	c5.975-18.91,46.23-33.53,68.024-32.089c22.068,1.439,64.931,58.447,78.109,138.757c13.18,80.239-15.541,151.659-15.541,151.659
	s156.94-2.162,184.744,0.722c27.557,2.884,49.594,43.347,51.03,62.532C835.345,471.612,788.114,492.684,788.114,492.684z"/>
</svg>
